<svg width="14" height="10" viewBox="0 0 14 10" fill="none" xmlns="http://www.w3.org/2000/svg">
<path d="M5.39609 9.27955C5.26483 9.27981 5.1348 9.25416 5.01348 9.20405C4.89215 9.15394 4.78192 9.08036 4.68909 8.98755L0.447095 4.74455C0.351521 4.65237 0.275263 4.54208 0.222769 4.42011C0.170276 4.29814 0.142599 4.16694 0.141352 4.03417C0.140105 3.90139 0.165314 3.76969 0.215508 3.64676C0.265702 3.52383 0.339876 3.41213 0.433701 3.31817C0.527527 3.22421 0.639125 3.14988 0.761984 3.09951C0.884844 3.04915 1.0165 3.02375 1.14928 3.02481C1.28206 3.02587 1.4133 3.05336 1.53534 3.10568C1.65738 3.158 1.76778 3.2341 1.86009 3.32955L5.39509 6.86455L11.7601 0.501546C11.9476 0.313906 12.202 0.208437 12.4672 0.208344C12.7325 0.20825 12.987 0.313538 13.1746 0.501046C13.3622 0.688554 13.4677 0.942923 13.4678 1.20819C13.4679 1.47346 13.3626 1.72791 13.1751 1.91555L6.10309 8.98755C6.01027 9.08036 5.90004 9.15394 5.77871 9.20405C5.65739 9.25416 5.52736 9.27981 5.39609 9.27955Z" fill="#2FAB73"/>
</svg>
